<svg width="351" height="351" viewBox="0 0 351 351" fill="none" xmlns="http://www.w3.org/2000/svg">
<circle cx="175.5" cy="175.5" r="175.5" fill="white"/>
<path d="M130.235 80.4407C159.775 85.4976 183.664 107.778 189.221 135.456C189.66 137.641 190.696 142.795 191.524 146.91C197.325 175.75 208.509 192.68 225.863 198.89C235.041 202.174 242.842 202.666 257.637 200.894C271.146 199.277 279.194 200.879 286.768 206.695C289.451 208.755 294.627 214.223 294.662 215.035C294.673 215.293 295.077 215.904 295.56 216.393C299.189 220.069 301.682 233.346 300.147 240.831C294.749 267.162 263.752 277.459 243.479 259.655C239.142 255.845 237.257 252.985 233.325 244.249C224.62 224.907 216.247 215.717 203.038 211.007C189.459 206.166 169.283 208.453 146.759 217.386C136.068 221.625 124.831 223.144 111.372 222.17C86.4483 220.365 62.081 201.578 52.6406 176.888C47.1063 162.414 46.4852 145.793 50.9049 130.438C57.7039 106.816 79.6638 86.3118 103.532 81.2989C109.28 80.0918 125.206 79.5799 130.235 80.4407Z" fill="black"/>
</svg>
